<?xml version="1.0" standalone="no"?>
<!DOCTYPE svg PUBLIC "-//W3C//DTD SVG 20010904//EN"
 "http://www.w3.org/TR/2001/REC-SVG-20010904/DTD/svg10.dtd">
<svg version="1.0" xmlns="http://www.w3.org/2000/svg"
 width="700.000000pt" height="700.000000pt" viewBox="0 0 700.000000 700.000000"
 preserveAspectRatio="xMidYMid meet">
<metadata>
Created by potrace 1.11, written by Peter Selinger 2001-2013
</metadata>
<g transform="translate(0.000000,700.000000) scale(0.100000,-0.100000)"
fill="#000000" stroke="none">
<path d="M3389 6963 c0 -21 -1 -122 -2 -226 l-2 -187 113 0 c82 0 112 3 113
13 1 19 1 378 0 410 l-1 27 -110 0 -110 0 -1 -37z"/>
<path d="M2538 6742 l-97 -56 24 -40 c14 -23 64 -110 112 -193 49 -84 91 -153
95 -153 5 0 176 97 188 107 2 2 -2 14 -10 26 -7 12 -56 96 -108 187 -52 91
-97 168 -101 172 -3 3 -50 -19 -103 -50z"/>
<path d="M4256 6617 c-58 -102 -108 -191 -111 -198 -3 -9 24 -31 82 -64 49
-27 93 -51 98 -53 13 -3 227 368 221 383 -2 7 -28 26 -58 42 -29 17 -69 40
-89 52 l-37 22 -106 -184z"/>
<path d="M3488 6325 c-1 -2 -41 -6 -88 -9 -47 -3 -96 -8 -110 -11 -457 -89
-816 -394 -961 -817 -51 -150 -68 -262 -65 -433 2 -82 6 -161 9 -175 4 -14 12
-49 18 -78 35 -171 144 -388 261 -521 36 -41 57 -86 45 -97 -2 -3 -53 -6 -113
-7 l-109 -2 -3 -112 -3 -113 114 0 114 0 -2 -107 c-1 -60 -3 -110 -4 -113 0
-3 -50 -5 -111 -4 l-110 0 0 -113 0 -113 114 0 113 0 -1 -225 -1 -225 905 2
905 3 -1 223 -1 222 114 0 113 0 0 113 0 113 -106 0 c-58 -1 -109 1 -113 4 -4
3 -7 53 -7 113 l-1 107 114 0 113 0 0 113 0 114 -112 0 c-111 -1 -112 0 -115
24 -2 17 10 39 40 74 127 146 242 379 272 550 4 22 9 51 12 65 13 68 12 295
-2 378 -19 115 -19 115 -50 207 -104 314 -347 587 -646 728 -54 25 -192 74
-234 83 -90 19 -130 26 -200 30 -44 3 -85 7 -92 9 -6 2 -13 2 -15 0z m191
-245 c524 -95 894 -595 829 -1120 -29 -227 -118 -412 -288 -595 l-46 -50 3
-67 c2 -64 1 -68 -20 -69 -32 -1 -498 -1 -523 0 -21 1 -22 3 -22 231 l0 230
72 34 c39 18 90 50 114 71 218 190 196 542 -44 705 -178 121 -406 104 -561
-44 -86 -81 -130 -172 -140 -292 -15 -187 88 -359 261 -440 l75 -34 -1 -230 0
-230 -32 -1 c-41 -1 -496 -1 -518 0 -15 1 -18 11 -16 71 l2 69 -50 53 c-193
205 -288 441 -288 713 1 276 105 521 308 720 151 150 333 242 548 279 85 14
249 12 337 -4z m-84 -797 c41 -19 57 -32 86 -73 108 -150 0 -354 -187 -352
-98 1 -180 67 -209 167 -15 50 -15 60 0 110 40 139 184 208 310 148z m583
-1442 c0 -104 -1 -109 -22 -113 -11 -2 -316 -3 -676 -3 l-655 1 -1 112 -2 112
678 0 678 0 0 -109z m-2 -453 l-1 -113 -675 0 -675 0 -1 113 -1 112 677 0 678
0 -2 -112z"/>
<path d="M1861 6083 c-18 -32 -40 -71 -51 -88 -28 -45 -24 -58 28 -86 26 -15
111 -63 190 -109 78 -46 144 -81 146 -79 8 9 106 182 106 188 0 4 -78 51 -172
106 -95 54 -182 105 -194 112 -20 13 -23 10 -53 -44z"/>
<path d="M5040 6099 c-36 -21 -72 -42 -80 -46 -55 -28 -240 -139 -240 -145 0
-4 24 -47 53 -97 36 -63 56 -89 66 -86 8 3 97 53 198 112 l182 105 -26 47
c-15 25 -41 69 -58 97 l-30 51 -65 -38z"/>
<path d="M1603 5192 c-22 -3 -23 -7 -23 -113 0 -60 3 -109 8 -109 4 -1 104 -1
222 -2 l215 -1 5 44 c3 24 4 76 2 114 l-3 70 -202 0 c-111 0 -212 -1 -224 -3z"/>
<path d="M4978 5189 c-11 -7 -15 -206 -5 -216 4 -4 199 -6 400 -4 l47 1 0 110
c0 81 -3 110 -12 111 -59 5 -422 3 -430 -2z"/>
<path d="M1975 4330 c-105 -60 -189 -113 -188 -118 4 -18 105 -182 112 -182 9
0 331 185 370 212 15 11 19 18 11 23 -6 4 -14 14 -18 24 -12 29 -86 151 -92
151 -3 0 -91 -49 -195 -110z"/>
<path d="M4778 4360 c-26 -44 -49 -88 -52 -98 -5 -14 29 -38 187 -128 l193
-111 56 98 56 98 -181 105 c-100 58 -189 107 -197 111 -11 4 -28 -17 -62 -75z"/>
<path d="M767 4266 c-190 -64 -309 -226 -311 -421 0 -97 20 -169 71 -250 l37
-60 2 -1085 c0 -597 4 -1105 8 -1130 75 -493 449 -884 921 -962 l80 -14 3
-172 2 -172 1920 0 1920 0 2 172 3 172 75 12 c223 38 434 148 600 314 169 168
281 382 321 617 9 49 12 378 14 1163 l2 1095 36 54 c116 168 91 403 -58 555
-94 95 -203 138 -338 131 -45 -2 -91 -7 -102 -11 -126 -46 -209 -111 -266
-209 -90 -155 -79 -349 26 -490 l22 -30 1 -522 c0 -517 0 -522 -20 -512 -29
16 -170 56 -225 65 -26 5 -51 9 -55 10 -5 1 -15 2 -23 3 -12 1 -15 21 -15 116
0 85 -3 115 -12 116 -17 1 -3788 1 -3810 0 -16 -1 -18 -13 -18 -116 0 -103 -2
-115 -17 -116 -56 -2 -221 -43 -265 -65 -60 -30 -56 -61 -56 498 l0 513 39 65
c50 82 72 155 71 240 -1 151 -81 299 -207 378 -109 69 -259 88 -378 48z m241
-230 c49 -26 89 -73 106 -124 72 -225 -195 -394 -367 -233 -45 41 -62 88 -62
166 0 63 4 75 32 117 69 98 187 128 291 74z m5213 -11 c111 -73 131 -230 42
-335 -131 -156 -402 -47 -388 157 3 56 10 75 42 124 25 38 87 78 137 89 47 9
125 -6 167 -35z m-5206 -1144 l1 -511 -48 -41 c-47 -39 -100 -93 -152 -154
l-26 -30 0 625 0 625 112 -1 113 -1 0 -512z m5195 -108 l0 -622 -112 112 -112
112 -1 510 0 510 112 0 113 0 0 -622z m-1020 -184 c4 -5 5 -2285 1 -2349 -1
-13 -56 -15 -439 -14 -240 1 -443 2 -449 3 -10 1 -13 75 -13 335 0 258 -3 335
-12 338 -11 3 -1534 2 -1560 -1 -5 -1 -8 -153 -8 -338 l0 -338 -450 0 c-393 0
-450 2 -451 15 -1 19 -1 2343 0 2351 1 8 3375 7 3381 -2z m-3610 -394 l0 -165
-113 0 -113 0 0 -112 1 -112 113 0 112 1 0 -114 0 -113 -113 0 -113 0 2 -107
c1 -60 2 -111 3 -114 0 -3 51 -5 111 -4 l110 0 0 -112 0 -112 -112 -3 -113 -3
0 -110 0 -110 113 0 112 0 0 -166 0 -166 -47 8 c-111 21 -284 90 -346 139
-193 153 -297 294 -356 485 -30 97 -36 142 -35 275 0 124 11 185 51 295 79
215 226 383 428 490 59 32 193 80 245 88 65 11 60 23 60 -158z m4018 124 c373
-126 622 -484 607 -874 -2 -60 -6 -123 -9 -140 -65 -321 -296 -588 -599 -690
-41 -13 -92 -27 -113 -30 -22 -3 -45 -8 -51 -10 -10 -3 -13 33 -13 159 0 122
3 165 13 168 6 2 57 3 112 2 l100 -2 0 112 0 111 -113 3 -113 3 3 111 3 112
105 2 c58 1 108 2 111 3 3 0 5 49 5 109 l-1 107 -112 3 -113 3 0 112 0 113
100 -1 c56 0 106 2 113 5 9 4 12 37 13 113 l0 107 -25 1 c-14 0 -65 0 -113 0
l-88 -2 0 166 0 166 48 -7 c26 -4 84 -19 130 -35z m-1537 -1653 c1 -6 2 -106
3 -223 1 -205 1 -212 -19 -215 -17 -3 -1090 -2 -1105 1 -3 1 -5 101 -5 224 l0
224 563 0 c399 0 562 -3 563 -11z"/>
<path d="M2550 2143 c-195 -23 -343 -117 -438 -279 -55 -94 -75 -168 -76 -284
-1 -113 26 -210 84 -298 224 -347 720 -353 944 -12 195 296 76 694 -249 829
-85 36 -189 53 -265 44z m187 -257 c190 -87 254 -325 134 -499 -119 -174 -378
-190 -523 -33 -120 129 -114 338 12 464 102 101 246 127 377 68z"/>
<path d="M4368 2145 c-2 -1 -26 -5 -54 -9 -208 -24 -401 -202 -458 -421 -15
-59 -16 -204 -2 -268 43 -192 210 -359 411 -412 56 -15 185 -21 230 -11 220
48 376 183 446 386 32 95 32 239 0 338 -75 232 -272 382 -521 397 -27 2 -50 2
-52 0z m127 -240 c136 -35 236 -165 242 -313 4 -122 -46 -222 -147 -289 -220
-148 -520 9 -522 273 -2 225 207 385 427 329z"/>
</g>
</svg>
